# AST/ASF file generated using VICON BodyLanguage
# -----------------------------------------------
:version 1.10
:name VICON
:units
  mass 1.0
  length 0.45
  angle deg
:documentation
   .ast/.asf automatically generated from VICON data using
   VICON BodyBuilder and BodyLanguage model FoxedUp or BRILLIANT.MOD
:root
   order TX TY TZ RX RY RZ
   axis XYZ
   position 0 0 0  
   orientation 0 0 0 
:bonedata
  begin
     id 1 
     name lhipjoint
     direction 0.64773 -0.699417 0.302095 
     length 2.48597 
     axis 0 0 0  XYZ
  end
  begin
     id 2 
     name lfemur
     direction 0.34202 -0.939693 0  
     length 6.71947  
     axis 0 0 20  XYZ
    dof rx ry rz
    limits (-160.0 20.0)
           (-70.0 70.0)
           (-60.0 70.0)
  end
  begin
     id 3 
     name ltibia
     direction 0.34202 -0.939693 0   
     length 8.08777   
     axis 0 0 20   XYZ
    dof rx
    limits (-10.0 170.0)
  end
  begin
     id 4 
     name lfoot
     direction 0.0808503 -0.222134 0.971658   
     length 2.08264   
     axis -90 7.62852e-016 20   XYZ
    dof rx rz
    limits (-45.0 90.0)
           (-70.0 20.0)
  end
  begin
     id 5 
     name ltoes
     direction 1.53502e-011 -4.22007e-011 1   
     length 1.04662   
     axis -90 7.62852e-016 20   XYZ
    dof rx
    limits (-90.0 20.0)
  end
  begin
     id 6 
     name rhipjoint
     direction -0.610924 -0.726792 0.313919   
     length 2.39233  
     axis 0 0 0  XYZ 
  end
  begin
     id 7 
     name rfemur
     direction -0.34202 -0.939693 0   
     length 6.96955   
     axis 0 0 -20   XYZ
    dof rx ry rz
    limits (-160.0 20.0)
           (-70.0 70.0)
           (-70.0 60.0)
  end
  begin
     id 8 
     name rtibia
     direction -0.34202 -0.939693 0   
     length 8.19584   
     axis 0 0 -20   XYZ
    dof rx
    limits (-10.0 170.0)
 end
 begin
     id 9 
     name rfoot
     direction -0.077777 -0.213691 0.9738   
     length 2.07539  
     axis -90 -7.62852e-016 -20   XYZ
    dof rx rz
    limits (-45.0 90.0)
           (-20.0 70.0)
  end
  begin
     id 10 
     name rtoes
     direction -1.53558e-011 -4.22006e-011 1   
     length 1.04381   
     axis -90 -7.62852e-016 -20   XYZ
    dof rx
    limits (-90.0 20.0)
  end
  begin
     id 11 
     name lowerback
     direction -0.00971646 0.996074 0.0879841   
     length 1.67643   
     axis 0 0 0   XYZ
    dof rx ry rz
    limits (-20.0 45.0)
           (-30.0 30.0)
           (-30.0 30.0)
  end
  begin
     id 12 
     name upperback
     direction 0.0127391 0.991676 0.128127   
     length 1.63741   
     axis 0 0 0   XYZ
    dof rx ry rz
    limits (-20.0 45.0)
           (-30.0 30.0)
           (-30.0 30.0)
  end
  begin
     id 13 
     name thorax
     direction 0.0167583 0.996049 0.0872067   
     length 1.65931   
     axis 0 0 0   XYZ
    dof rx ry rz
    limits (-20.0 45.0)
           (-30.0 30.0)
           (-30.0 30.0)
  end
  begin
     id 14 
     name lowerneck
     direction -0.0317829 0.998312 0.0486079   
     length 1.79021   
     axis 0 0 0   XYZ
    dof rx ry rz
    limits (-20.0 45.0)
           (-30.0 30.0)
           (-30.0 30.0)
  end
  begin
     id 15 
     name upperneck
     direction 0.0896851 0.972452 -0.215159   
     length 1.78797   
     axis 0 0 0   XYZ
    dof rx ry rz
    limits (-20.0 45.0)
           (-30.0 30.0)
           (-30.0 30.0)
  end
  begin
     id 16
     name head
     direction 0.0310949 0.996503 -0.0775582  
     length 1.81549  
     axis 0 0 0   XYZ
    dof rx ry rz
    limits (-20.0 45.0)
           (-30.0 30.0)
           (-30.0 30.0)
  end
  begin
     id 17 
     name lclavicle
     direction 0.853638 0.502051 -0.138733  
     length 3.31627  
     axis 0 0 0   XYZ
    dof ry rz
    limits (-20.0 10.0)
           (0.0 20.0)
  end
  begin
     id 18 
     name lhumerus
     direction 1 -4.48962e-011 -1.41788e-018   
     length 5.54893   
     axis 180 -30 -90   XYZ
    dof rx ry rz
    limits (-60.0 90.0)
           (-90.0 90.0)
           (-90.0 90.0)
  end
  begin
     id 19
     name lradius
     direction 1 -4.48962e-011 -4.95754e-027   
     length 3.02898   
     axis 180 -30 -90   XYZ
    dof rx
    limits (-10.0 170.0)
  end
  begin
     id 20
     name lwrist
     direction 1 -4.48952e-011 -1.03764e-026   
     length 1.51449   
     axis 9.09556e-015 90 90   XYZ
    dof ry
    limits (-180.0 0.0)
 end
  begin
     id 21 
     name lhand
     direction 1 -4.4902e-011 -2.07528e-026   
     length 0.640951   
     axis 1.3242e-014 90 90   XYZ
    dof rx rz
    limits (-90.0 90.0)
           (-45.0 45.0)
  end
  begin
     id 22 
     name lfingers
     direction 1 -4.49014e-011 -4.15056e-026   
     length 0.516751   
     axis 2.64841e-014 90 90   XYZ
    dof rx
    limits (0.0 90.0)
  end
  begin
     id 23
     name lthumb
     direction 0.707107 -6.35008e-011 0.707107   
     length 0.741954   
     axis -90 45 2.85299e-015   XYZ
    dof rx rz
    limits (-45.0 45.0)
           (-45.0 45.0)
  end
  begin
     id 24 
     name rclavicle
     direction -0.888531 0.455324 -0.0565039   
     length 3.20126  
     axis 0 0 0   XYZ 
    dof ry rz
    limits (-10.0 20.0)
           (-20.0 0.0)
  end
  begin
     id 25 
     name rhumerus
     direction -1 -4.48946e-011 -8.98298e-028  
     length 5.3519   
     axis 180 30 90   XYZ
    dof rx ry rz
    limits (-90.0 60.0)
           (-90.0 90.0)
           (-90.0 90.0)
  end
  begin
     id 26 
     name rradius
     direction -1 -4.4899e-011 -3.18779e-027   
     length 3.02531   
     axis 180 30 90   XYZ
    dof rx
    limits (-10.0 170.0)
  end
  begin
     id 27 
     name rwrist
     direction -1 -4.4897e-011 -1.03764e-026   
     length 1.51266   
     axis 9.09556e-015 -90 -90   XYZ
    dof ry
    limits (-180.0 0.0)
  end
  begin
     id 28
     name rhand
     direction -1 -4.48941e-011 -2.07528e-026   
     length 0.78389   
     axis 1.3242e-014 -90 -90   XYZ
    dof rx rz
    limits (-90.0 90.0)
           (-45.0 45.0)
  end
  begin
     id 29
     name rfingers
     direction -1 -4.49012e-011 -4.15056e-026   
     length 0.631992   
     axis 2.64841e-014 -90 -90   XYZ
    dof rx
    limits (0.0 90.0)
  end
  begin
     id 30
     name rthumb
     direction -0.707107 -6.3496e-011 0.707107   
     length 0.907418   
     axis -90 -45 -2.85299e-015   XYZ
    dof rx rz
    limits (-45.0 45.0)
           (-45.0 45.0)
  end
:hierarchy
  begin
    root lhipjoint rhipjoint lowerback
    lhipjoint lfemur
    lfemur ltibia
    ltibia lfoot
    lfoot ltoes
    rhipjoint rfemur
    rfemur rtibia
    rtibia rfoot
    rfoot rtoes
    lowerback upperback
    upperback thorax
    thorax lowerneck lclavicle rclavicle
    lowerneck upperneck
    upperneck head
    lclavicle lhumerus
    lhumerus lradius
    lradius lwrist
    lwrist lhand lthumb
    lhand lfingers
    rclavicle rhumerus
    rhumerus rradius
    rradius rwrist
    rwrist rhand rthumb
    rhand rfingers
  end

#!OML:ASF E:\Style3\Style3.ASF
:FULLY-SPECIFIED
:DEGREES
325
root 1.15564 19.351 0.305739 -143.26 78.069 -168.095
lowerback 181.396 179.858 180.101
upperback -11.0951 0.93196 1.96605
thorax -12.7935 0.796684 1.92009
lowerneck -3.74825 3.316 -4.28447
upperneck 12.1376 3.7903 11.6947
head 3.88591 2.41084 4.47179
rclavicle 3.46134e-014 -5.56597e-015
rhumerus -63.6789 19.2178 -81.7427
rradius 82.9389
rwrist -2.41492
rhand 19.6585 10.3239
rfingers 7.12502
rthumb 44.2169 -13.4777
lclavicle 3.46134e-014 -5.56597e-015
lhumerus -61.8613 -17.3364 84.4811
lradius 99.1673
lwrist 11.795
lhand 22.6227 43.3337
lfingers 7.12502
lthumb 46.97 66.0131
rfemur -23.5185 7.19597 16.9835
rtibia 11.973
rfoot 20.5069 -18.3974
rtoes -23.1024
lfemur -28.27 -22.2733 -4.11067
ltibia 11.4149
lfoot 25.4347 16.1277
ltoes -40.1186
326
root 1.13406 19.3895 0.316386 -143.102 78.1212 -167.889
lowerback 181.975 179.779 180.11
upperback -10.6962 0.984538 1.88725
thorax -12.6815 0.791777 1.82059
lowerneck -4.015 3.27618 -4.14418
upperneck 12.411 3.71419 11.6913
head 4.02338 2.3947 4.45946
rclavicle -2.65874e-015 -4.37326e-015
rhumerus -63.8746 18.7948 -81.58
rradius 82.8914
rwrist -2.57315
rhand 19.8019 10.1943
rfingers 7.12502
rthumb 44.3505 -13.5566
lclavicle -2.65874e-015 -4.37326e-015
lhumerus -61.7883 -17.4289 84.1676
lradius 99.1414
lwrist 11.8013
lhand 22.5312 43.1337
lfingers 7.12502
lthumb 46.8854 65.8503
rfemur -23.771 7.08341 17.0121
rtibia 12.2055
rfoot 21.5841 -17.8921
rtoes -23.8792
lfemur -28.2908 -22.83 -3.68435
ltibia 10.9074
lfoot 26.1713 17.8814
ltoes -38.2527
327
root 1.11267 19.4294 0.329093 -143.285 78.2601 -168.073
lowerback 182.534 179.698 179.961
upperback -10.3449 1.03075 1.8118
thorax -12.617 0.803613 1.81426
lowerneck -4.28715 3.20937 -4.04562
upperneck 12.8278 3.59755 11.6755
head 4.20783 2.36101 4.45301
rclavicle 3.72721e-015 3.12092e-014
rhumerus -64.1176 18.4977 -81.4631
rradius 82.7146
rwrist -2.87033
rhand 19.8032 9.77904
rfingers 7.12502
rthumb 44.3517 -13.9714
lclavicle 3.72721e-015 3.12092e-014
lhumerus -61.8495 -17.4641 83.8951
lradius 99.1236
lwrist 11.8876
lhand 22.3105 43.0395
lfingers 7.12502
lthumb 46.681 65.845
rfemur -24.0093 7.03013 16.9132
rtibia 12.3674
rfoot 22.8785 -17.1613
rtoes -25.3082
lfemur -28.3278 -23.4872 -3.31286
ltibia 10.3975
lfoot 26.7553 19.7382
ltoes -36.2953
328
root 1.09059 19.4589 0.342625 -143.294 78.3996 -168.093
lowerback 183.045 179.647 179.807
upperback -9.99267 1.0456 1.80449
thorax -12.5245 0.806061 1.88838
lowerneck -4.45333 3.18952 -4.03443
upperneck 13.168 3.5548 11.6586
head 4.34323 2.354 4.45852
rclavicle 1.57785e-014 3.04141e-014
rhumerus -64.4155 18.3628 -81.3734
rradius 82.4639
rwrist -2.91322
rhand 19.6957 9.6446
rfingers 7.12502
rthumb 44.2515 -14.1438
lclavicle 1.57785e-014 3.04141e-014
lhumerus -61.9192 -17.4745 83.681
lradius 99.066
lwrist 12.0076
lhand 22.0484 43.2142
lfingers 7.12502
lthumb 46.4384 66.124
rfemur -24.3319 7.39103 16.6635
rtibia 12.402
rfoot 23.5488 -18.3834
rtoes -22.499
lfemur -28.314 -23.6687 -3.16703
ltibia 9.97173
lfoot 27.2065 20.9284
ltoes -34.6487
329
root 1.066 19.4793 0.35294 -143.141 78.6151 -168.024
lowerback 183.487 179.574 179.64
upperback -9.6498 1.09186 1.80139
thorax -12.4031 0.826307 1.97045
lowerneck -4.49392 3.19281 -4.06753
upperneck 13.3454 3.55255 11.6725
head 4.4029 2.35841 4.47463
rclavicle -1.26228e-014 -2.70347e-014
rhumerus -64.6673 18.2541 -81.2324
rradius 82.0956
rwrist -2.84944
rhand 19.5054 10.3934
rfingers 7.12502
rthumb 44.074 -13.4618
lclavicle -1.26228e-014 -2.70347e-014
lhumerus -61.9886 -17.5873 83.5121
lradius 99.0006
lwrist 12.1582
lhand 21.8132 43.199
lfingers 7.12502
lthumb 46.2203 66.2013
rfemur -24.8491 7.88635 16.2699
rtibia 12.4528
rfoot 23.2048 -20.5613
rtoes -16.9058
lfemur -28.3162 -23.7694 -3.04871
ltibia 9.49173
lfoot 27.5248 22.2538
ltoes -32.6655
330
root 1.04385 19.5002 0.36308 -143.064 78.6646 -167.958
lowerback 183.96 179.537 179.593
upperback -9.27584 1.09646 1.78392
thorax -12.2615 0.812838 1.97568
lowerneck -4.43177 3.19408 -3.93026
upperneck 13.4497 3.54998 11.5661
head 4.42976 2.3594 4.41975
rclavicle -1.51573e-014 -2.92213e-014
rhumerus -64.8505 18.1763 -81.1639
rradius 81.7196
rwrist -2.86096
rhand 18.8952 10.9425
rfingers 7.12502
rthumb 43.5045 -13.1227
lclavicle -1.51573e-014 -2.92213e-014
lhumerus -62.1024 -17.631 83.2588
lradius 98.9532
lwrist 12.1952
lhand 21.5026 42.9028
lfingers 7.12502
lthumb 45.9322 66.0256
rfemur -25.1864 8.36173 15.9914
rtibia 12.5819
rfoot 23.1556 -21.7428
rtoes -13.9972
lfemur -28.2273 -24.0001 -2.80702
ltibia 8.92751
lfoot 27.4945 23.9251
ltoes -29.8932
331
root 1.02461 19.527 0.375534 -143.313 78.5771 -168.107
lowerback 184.503 179.539 179.597
upperback -8.84055 1.0487 1.7595
thorax -12.0895 0.766642 1.95131
lowerneck -4.41317 3.21224 -3.84383
upperneck 13.5499 3.56864 11.523
head 4.45847 2.37304 4.39505
rclavicle -8.34896e-015 -2.38542e-015
rhumerus -64.9309 18.0829 -81.0808
rradius 81.4118
rwrist -2.89388
rhand 18.5222 10.7294
rfingers 7.12502
rthumb 43.156 -13.4611
lclavicle -8.34896e-015 -2.38542e-015
lhumerus -62.1743 -17.5344 82.9432
lradius 98.9696
lwrist 12.0659
lhand 21.326 42.7289
lfingers 7.12502
lthumb 45.7683 65.9192
rfemur -25.2102 8.68961 15.8849
rtibia 12.7427
rfoot 23.4841 -21.8923
rtoes -14.1858
lfemur -28.0898 -24.3726 -2.50561
ltibia 8.38905
lfoot 27.6298 25.1909
ltoes -27.7666
332
root 1.00358 19.5553 0.384771 -143.166 78.586 -167.919
lowerback 185.034 179.512 179.651
upperback -8.45057 1.05416 1.74319
thorax -11.9649 0.745538 1.90034
lowerneck -4.4062 3.2507 -3.80292
upperneck 13.755 3.61315 11.4874
head 4.51764 2.40113 4.38479
rclavicle 2.77305e-014 1.74931e-014
rhumerus -65.1057 17.9566 -80.9453
rradius 81.2087
rwrist -2.90338
rhand 18.9634 10.3358
rfingers 7.12502
rthumb 43.5682 -13.7063
lclavicle 2.77305e-014 1.74931e-014
lhumerus -62.2958 -17.4528 82.6909
lradius 99.0196
lwrist 12.0335
lhand 21.2633 42.7063
lfingers 7.12502
lthumb 45.7101 65.9206
rfemur -25.2363 8.43375 16.0152
rtibia 12.8433
rfoot 24.4319 -20.6542
rtoes -16.4357
lfemur -28.1042 -24.6198 -2.20737
ltibia 8.02974
lfoot 27.9467 25.8962
ltoes -27.0225
333
root 0.976221 19.5697 0.391693 -143.12 78.7154 -167.944
lowerback 185.529 179.454 179.634
upperback -8.10098 1.09593 1.69635
thorax -11.8683 0.749167 1.8502
lowerneck -4.48843 3.26857 -3.78359
upperneck 14.0375 3.62741 11.4519
head 4.61772 2.41746 4.38177
rclavicle 1.41137e-014 2.78299e-015
rhumerus -65.3311 17.8038 -80.8051
rradius 81.0762
rwrist -2.8997
rhand 19.5393 10.2432
rfingers 7.12502
rthumb 44.1057 -13.6002
lclavicle 1.41137e-014 2.78299e-015
lhumerus -62.3923 -17.3819 82.4584
lradius 99.0044
lwrist 11.9518
lhand 21.3366 42.6067
lfingers 7.12502
lthumb 45.7781 65.7931
rfemur -25.547 8.35865 15.8931
rtibia 12.9454
rfoot 24.9758 -20.5191
rtoes -15.872
lfemur -28.2521 -24.785 -2.0156
ltibia 7.78384
lfoot 28.1525 26.5362
ltoes -26.1524
334
root 0.948515 19.5731 0.396173 -142.706 78.8143 -167.637
lowerback 185.943 179.391 179.74
upperback -7.73563 1.15783 1.63294
thorax -11.7022 0.751344 1.70965
lowerneck -4.531 3.26388 -3.72359
upperneck 14.2242 3.61295 11.4116
head 4.68544 2.41773 4.36542
rclavicle -1.18277e-014 -2.42517e-014
rhumerus -65.5155 17.6631 -80.7707
rradius 80.9238
rwrist -2.87921
rhand 19.7119 10.2645
rfingers 7.12502
rthumb 44.2666 -13.5182
lclavicle -1.18277e-014 -2.42517e-014
lhumerus -62.4475 -17.3551 82.1514
lradius 99.0184
lwrist 11.8878
lhand 21.5098 42.5595
lfingers 7.12502
lthumb 45.9389 65.6794
rfemur -25.9806 8.61818 15.6802
rtibia 12.997
rfoot 25.2906 -21.1898
rtoes -13.942
lfemur -28.5213 -24.9277 -1.74649
ltibia 7.73146
lfoot 28.2077 27.2548
ltoes -24.6961
